<?xml version="1.0" encoding="UTF-8" standalone="no"?> <!-- Created with Vectornator for iOS (http://vectornator.io/) --><!DOCTYPE svg PUBLIC "-//W3C//DTD SVG 1.1//EN" "http://www.w3.org/Graphics/SVG/1.1/DTD/svg11.dtd">
<svg width="140" height="33" fill="none" style="fill-rule:evenodd;clip-rule:evenodd;stroke-linecap:round;stroke-linejoin:round;" xmlns:vectornator="http://vectornator.io" xmlns:xlink="http://www.w3.org/1999/xlink" xmlns="http://www.w3.org/2000/svg" xml:space="preserve" version="1.1" viewBox="0 0 140 33">
<metadata>
<vectornator:setting key="DynamicGuides" value="1"/>
<vectornator:setting key="CMYKEnabledKey" value="0"/>
<vectornator:setting key="Units" value="Points"/>
<vectornator:setting key="GridSpacing" value="36"/>
<vectornator:setting key="SnapToGuides" value="1"/>
<vectornator:setting key="RulersVisible" value="1"/>
</metadata>
<defs/>
<g id="Untitled" vectornator:layerName="Untitled">
<g opacity="1">
<path d="M46.1104+19.414L46.1104+10.838L44.5904+10.838L44.5904+19.19C44.5904+19.8194+44.4598+20.3207+44.1984+20.694C43.9371+21.0674+43.4598+21.254+42.7664+21.254C42.3931+21.254+42.0864+21.198+41.8464+21.086C41.6064+20.974+41.4198+20.8167+41.2864+20.614C41.1531+20.4114+41.0598+20.1714+41.0064+19.894C40.9531+19.6167+40.9264+19.3127+40.9264+18.982L40.9264+18.502L39.4064+18.502L39.4064+19.206C39.4064+20.294+39.6944+21.118+40.2704+21.678C40.8464+22.238+41.6678+22.518+42.7344+22.518C43.3744+22.518+43.9104+22.43+44.3424+22.254C44.7744+22.078+45.1211+21.8434+45.3824+21.55C45.6438+21.2567+45.8304+20.9234+45.9424+20.55C46.0544+20.1767+46.1104+19.798+46.1104+19.414Z" opacity="1" fill="#000000"/>
<path d="M54.1264+17.334L49.3744+17.334C49.3958+17.014+49.4651+16.7127+49.5824+16.43C49.6998+16.1474+49.8598+15.8994+50.0624+15.686C50.2651+15.4727+50.5078+15.3047+50.7904+15.182C51.0731+15.0594+51.3904+14.998+51.7424+14.998C52.0838+14.998+52.3958+15.0594+52.6784+15.182C52.9611+15.3047+53.2064+15.47+53.4144+15.678C53.6224+15.886+53.7878+16.134+53.9104+16.422C54.0331+16.71+54.1051+17.014+54.1264+17.334ZM55.4384+19.638L54.0944+19.638C53.9771+20.182+53.7344+20.5874+53.3664+20.854C52.9984+21.1207+52.5264+21.254+51.9504+21.254C51.5024+21.254+51.1131+21.1794+50.7824+21.03C50.4518+20.8807+50.1798+20.6807+49.9664+20.43C49.7531+20.1794+49.5984+19.8914+49.5024+19.566C49.4064+19.2407+49.3638+18.8967+49.3744+18.534L55.5664+18.534C55.5878+18.0327+55.5424+17.5047+55.4304+16.95C55.3184+16.3954+55.1158+15.8834+54.8224+15.414C54.5291+14.9447+54.1398+14.558+53.6544+14.254C53.1691+13.95+52.5584+13.798+51.8224+13.798C51.2571+13.798+50.7371+13.9047+50.2624+14.118C49.7878+14.3314+49.3771+14.63+49.0304+15.014C48.6838+15.398+48.4144+15.8514+48.2224+16.374C48.0304+16.8967+47.9344+17.4727+47.9344+18.102C47.9558+18.7314+48.0491+19.3127+48.2144+19.846C48.3798+20.3794+48.6278+20.838+48.9584+21.222C49.2891+21.606+49.6971+21.9047+50.1824+22.118C50.6678+22.3314+51.2411+22.438+51.9024+22.438C52.8411+22.438+53.6198+22.2034+54.2384+21.734C54.8571+21.2647+55.2571+20.566+55.4384+19.638Z" opacity="1" fill="#000000"/>
<path d="M56.9744+10.838L56.9744+22.262L58.3344+22.262L58.3344+17.59C58.3344+17.2167+58.3851+16.8727+58.4864+16.558C58.5878+16.2434+58.7398+15.9687+58.9424+15.734C59.1451+15.4994+59.3984+15.318+59.7024+15.19C60.0064+15.062+60.3664+14.998+60.7824+14.998C61.3051+14.998+61.7158+15.1474+62.0144+15.446C62.3131+15.7447+62.4624+16.15+62.4624+16.662L62.4624+22.262L63.8224+22.262L63.8224+16.822C63.8224+16.374+63.7771+15.966+63.6864+15.598C63.5958+15.23+63.4384+14.9127+63.2144+14.646C62.9904+14.3794+62.6971+14.1714+62.3344+14.022C61.9718+13.8727+61.5184+13.798+60.9744+13.798C60.7291+13.798+60.4758+13.8247+60.2144+13.878C59.9531+13.9314+59.7024+14.014+59.4624+14.126C59.2224+14.238+59.0064+14.382+58.8144+14.558C58.6224+14.734+58.4731+14.95+58.3664+15.206L58.3344+15.206L58.3344+10.838L56.9744+10.838Z" opacity="1" fill="#000000"/>
<path d="M73.1984+22.23C72.9638+22.3687+72.6384+22.438+72.2224+22.438C71.8704+22.438+71.5904+22.3394+71.3824+22.142C71.1744+21.9447+71.0704+21.622+71.0704+21.174C70.6971+21.622+70.2624+21.9447+69.7664+22.142C69.2704+22.3394+68.7344+22.438+68.1584+22.438C67.7851+22.438+67.4304+22.3954+67.0944+22.31C66.7584+22.2247+66.4678+22.0914+66.2224+21.91C65.9771+21.7287+65.7824+21.4914+65.6384+21.198C65.4944+20.9047+65.4224+20.55+65.4224+20.134C65.4224+19.6647+65.5024+19.2807+65.6624+18.982C65.8224+18.6834+66.0331+18.4407+66.2944+18.254C66.5558+18.0674+66.8544+17.926+67.1904+17.83C67.5264+17.734+67.8704+17.654+68.2224+17.59C68.5958+17.5154+68.9504+17.4594+69.2864+17.422C69.6224+17.3847+69.9184+17.3314+70.1744+17.262C70.4304+17.1927+70.6331+17.0914+70.7824+16.958C70.9318+16.8247+71.0064+16.63+71.0064+16.374C71.0064+16.0754+70.9504+15.8354+70.8384+15.654C70.7264+15.4727+70.5824+15.334+70.4064+15.238C70.2304+15.142+70.0331+15.078+69.8144+15.046C69.5958+15.014+69.3798+14.998+69.1664+14.998C68.5904+14.998+68.1104+15.1074+67.7264+15.326C67.3424+15.5447+67.1344+15.958+67.1024+16.566L65.7424+16.566C65.7638+16.054+65.8704+15.622+66.0624+15.27C66.2544+14.918+66.5104+14.6327+66.8304+14.414C67.1504+14.1954+67.5158+14.038+67.9264+13.942C68.3371+13.846+68.7771+13.798+69.2464+13.798C69.6198+13.798+69.9904+13.8247+70.3584+13.878C70.7264+13.9314+71.0598+14.0407+71.3584+14.206C71.6571+14.3714+71.8971+14.6034+72.0784+14.902C72.2598+15.2007+72.3504+15.59+72.3504+16.07L72.3504+20.326C72.3504+20.646+72.3691+20.8807+72.4064+21.03C72.4438+21.1794+72.5691+21.254+72.7824+21.254C72.8998+21.254+73.0384+21.2274+73.1984+21.174L73.1984+22.23ZM70.9904+17.99C70.8198+18.118+70.5958+18.2114+70.3184+18.27C70.0411+18.3287+69.7504+18.3767+69.4464+18.414C69.1424+18.4514+68.8358+18.494+68.5264+18.542C68.2171+18.59+67.9398+18.6674+67.6944+18.774C67.4491+18.8807+67.2491+19.0327+67.0944+19.23C66.9398+19.4274+66.8624+19.6967+66.8624+20.038C66.8624+20.262+66.9078+20.4514+66.9984+20.606C67.0891+20.7607+67.2064+20.886+67.3504+20.982C67.4944+21.078+67.6624+21.1474+67.8544+21.19C68.0464+21.2327+68.2491+21.254+68.4624+21.254C68.9104+21.254+69.2944+21.1927+69.6144+21.07C69.9344+20.9474+70.1958+20.7927+70.3984+20.606C70.6011+20.4194+70.7504+20.2167+70.8464+19.998C70.9424+19.7794+70.9904+19.574+70.9904+19.382L70.9904+17.99Z" opacity="1" fill="#000000"/>
<path d="M74.4624+13.99L74.4624+22.262L75.8224+22.262L75.8224+17.59C75.8224+17.2167+75.8731+16.8727+75.9744+16.558C76.0758+16.2434+76.2278+15.9687+76.4304+15.734C76.6331+15.4994+76.8864+15.318+77.1904+15.19C77.4944+15.062+77.8544+14.998+78.2704+14.998C78.7931+14.998+79.2038+15.1474+79.5024+15.446C79.8011+15.7447+79.9504+16.15+79.9504+16.662L79.9504+22.262L81.3104+22.262L81.3104+16.822C81.3104+16.374+81.2651+15.966+81.1744+15.598C81.0838+15.23+80.9264+14.9127+80.7024+14.646C80.4784+14.3794+80.1851+14.1714+79.8224+14.022C79.4598+13.8727+79.0064+13.798+78.4624+13.798C77.2358+13.798+76.3398+14.2994+75.7744+15.302L75.7424+15.302L75.7424+13.99L74.4624+13.99Z" opacity="1" fill="#000000"/>
<path d="M90.4944+21.558L90.4944+13.99L89.2144+13.99L89.2144+15.174L89.1984+15.174C88.9531+14.7154+88.6118+14.3714+88.1744+14.142C87.7371+13.9127+87.2571+13.798+86.7344+13.798C86.0198+13.798+85.4171+13.934+84.9264+14.206C84.4358+14.478+84.0411+14.8247+83.7424+15.246C83.4438+15.6674+83.2304+16.1367+83.1024+16.654C82.9744+17.1714+82.9104+17.6754+82.9104+18.166C82.9104+18.7314+82.9878+19.2674+83.1424+19.774C83.2971+20.2807+83.5291+20.7234+83.8384+21.102C84.1478+21.4807+84.5318+21.782+84.9904+22.006C85.4491+22.23+85.9878+22.342+86.6064+22.342C87.1398+22.342+87.6438+22.222+88.1184+21.982C88.5931+21.742+88.9478+21.366+89.1824+20.854L89.2144+20.854L89.2144+21.398C89.2144+21.8567+89.1691+22.278+89.0784+22.662C88.9878+23.046+88.8411+23.374+88.6384+23.646C88.4358+23.918+88.1798+24.1314+87.8704+24.286C87.5611+24.4407+87.1824+24.518+86.7344+24.518C86.5104+24.518+86.2758+24.494+86.0304+24.446C85.7851+24.398+85.5584+24.3207+85.3504+24.214C85.1424+24.1074+84.9664+23.9687+84.8224+23.798C84.6784+23.6274+84.6011+23.4194+84.5904+23.174L83.2304+23.174C83.2518+23.622+83.3691+24.0007+83.5824+24.31C83.7958+24.6194+84.0651+24.87+84.3904+25.062C84.7158+25.254+85.0784+25.3927+85.4784+25.478C85.8784+25.5634+86.2704+25.606+86.6544+25.606C87.9771+25.606+88.9478+25.27+89.5664+24.598C90.1851+23.926+90.4944+22.9127+90.4944+21.558ZM86.6864+21.158C86.2384+21.158+85.8651+21.0647+85.5664+20.878C85.2678+20.6914+85.0278+20.446+84.8464+20.142C84.6651+19.838+84.5371+19.4994+84.4624+19.126C84.3878+18.7527+84.3504+18.3794+84.3504+18.006C84.3504+17.6114+84.3958+17.2327+84.4864+16.87C84.5771+16.5074+84.7211+16.1874+84.9184+15.91C85.1158+15.6327+85.3691+15.4114+85.6784+15.246C85.9878+15.0807+86.3611+14.998+86.7984+14.998C87.2251+14.998+87.5878+15.0834+87.8864+15.254C88.1851+15.4247+88.4278+15.6514+88.6144+15.934C88.8011+16.2167+88.9371+16.534+89.0224+16.886C89.1078+17.238+89.1504+17.5954+89.1504+17.958C89.1504+18.342+89.1051+18.726+89.0144+19.11C88.9238+19.494+88.7824+19.838+88.5904+20.142C88.3984+20.446+88.1451+20.6914+87.8304+20.878C87.5158+21.0647+87.1344+21.158+86.6864+21.158Z" opacity="1" fill="#000000"/>
<path d="M93.9824+12.502L93.9824+10.838L92.6224+10.838L92.6224+12.502L93.9824+12.502ZM92.6224+13.99L92.6224+22.262L93.9824+22.262L93.9824+13.99L92.6224+13.99Z" opacity="1" fill="#000000"/>
<path d="M96.0464+13.99L96.0464+22.262L97.4064+22.262L97.4064+18.582C97.4064+18.0487+97.4598+17.5767+97.5664+17.166C97.6731+16.7554+97.8438+16.406+98.0784+16.118C98.3131+15.83+98.6224+15.6114+99.0064+15.462C99.3904+15.3127+99.8544+15.238+100.398+15.238L100.398+13.798C99.6624+13.7767+99.0544+13.926+98.5744+14.246C98.0944+14.566+97.6891+15.062+97.3584+15.734L97.3264+15.734L97.3264+13.99L96.0464+13.99Z" opacity="1" fill="#000000"/>
<path d="M106.094+10.838L106.094+22.262L107.614+22.262L107.614+18.262L109.518+16.486L113.646+22.262L115.566+22.262L110.558+15.446L115.374+10.838L113.406+10.838L107.614+16.534L107.614+10.838L106.094+10.838Z" opacity="1" fill="#000000"/>
<path d="M123.87+22.23C123.636+22.3687+123.31+22.438+122.894+22.438C122.542+22.438+122.262+22.3394+122.054+22.142C121.846+21.9447+121.742+21.622+121.742+21.174C121.369+21.622+120.934+21.9447+120.438+22.142C119.942+22.3394+119.406+22.438+118.83+22.438C118.457+22.438+118.102+22.3954+117.766+22.31C117.43+22.2247+117.14+22.0914+116.894+21.91C116.649+21.7287+116.454+21.4914+116.31+21.198C116.166+20.9047+116.094+20.55+116.094+20.134C116.094+19.6647+116.174+19.2807+116.334+18.982C116.494+18.6834+116.705+18.4407+116.966+18.254C117.228+18.0674+117.526+17.926+117.862+17.83C118.198+17.734+118.542+17.654+118.894+17.59C119.268+17.5154+119.622+17.4594+119.958+17.422C120.294+17.3847+120.59+17.3314+120.846+17.262C121.102+17.1927+121.305+17.0914+121.454+16.958C121.604+16.8247+121.678+16.63+121.678+16.374C121.678+16.0754+121.622+15.8354+121.51+15.654C121.398+15.4727+121.254+15.334+121.078+15.238C120.902+15.142+120.705+15.078+120.486+15.046C120.268+15.014+120.052+14.998+119.838+14.998C119.262+14.998+118.782+15.1074+118.398+15.326C118.014+15.5447+117.806+15.958+117.774+16.566L116.414+16.566C116.436+16.054+116.542+15.622+116.734+15.27C116.926+14.918+117.182+14.6327+117.502+14.414C117.822+14.1954+118.188+14.038+118.598+13.942C119.009+13.846+119.449+13.798+119.918+13.798C120.292+13.798+120.662+13.8247+121.03+13.878C121.398+13.9314+121.732+14.0407+122.03+14.206C122.329+14.3714+122.569+14.6034+122.75+14.902C122.932+15.2007+123.022+15.59+123.022+16.07L123.022+20.326C123.022+20.646+123.041+20.8807+123.078+21.03C123.116+21.1794+123.241+21.254+123.454+21.254C123.572+21.254+123.71+21.2274+123.87+21.174L123.87+22.23ZM121.662+17.99C121.492+18.118+121.268+18.2114+120.99+18.27C120.713+18.3287+120.422+18.3767+120.118+18.414C119.814+18.4514+119.508+18.494+119.198+18.542C118.889+18.59+118.612+18.6674+118.366+18.774C118.121+18.8807+117.921+19.0327+117.766+19.23C117.612+19.4274+117.534+19.6967+117.534+20.038C117.534+20.262+117.58+20.4514+117.67+20.606C117.761+20.7607+117.878+20.886+118.022+20.982C118.166+21.078+118.334+21.1474+118.526+21.19C118.718+21.2327+118.921+21.254+119.134+21.254C119.582+21.254+119.966+21.1927+120.286+21.07C120.606+20.9474+120.868+20.7927+121.07+20.606C121.273+20.4194+121.422+20.2167+121.518+19.998C121.614+19.7794+121.662+19.574+121.662+19.382L121.662+17.99Z" opacity="1" fill="#000000"/>
<path d="M124.462+21.222L124.462+22.262L131.438+22.262L131.438+21.062L126.158+21.062L131.214+14.918L131.214+13.99L124.782+13.99L124.782+15.19L129.454+15.19L124.462+21.222Z" opacity="1" fill="#000000"/>
<path d="M134.254+12.502L134.254+10.838L132.894+10.838L132.894+12.502L134.254+12.502ZM132.894+13.99L132.894+22.262L134.254+22.262L134.254+13.99L132.894+13.99Z" opacity="1" fill="#000000"/>
</g>
<path stroke="#000000" stroke-width="1" d="M5.61167+13.2575C5.63492+1.93846+24.8474+4.96958+31.2349+4.09562L31.329+4.78049C23.9687+6.58585+8.88801+2.33062+6.30799+13.1376" fill="#eb5f00" stroke-linecap="butt" opacity="1" stroke-linejoin="round"/>
<path stroke="#000000" stroke-width="1" d="M19.1197+7.08157C19.1383+14.7692+20.1246+27.9686+9.94231+29.6013C7.47907+29.9962+5.30967+30.029+3.34355+28.3592L3.5782+27.6033C18.4201+27.9847+16.9615+18.8965+17.8733+7.04803" fill="#eb5f00" stroke-linecap="butt" opacity="1" stroke-linejoin="round"/>
<path stroke="#000000" stroke-width="1" d="M31.329+9.45863C25.3874+15.8036+19.5083+19.467+10.3949+18.1812L10.3648+17.4386C19.4604+14.5286+22.9122+15.5158+30.5204+8.74319" fill="#eb5f00" stroke-linecap="butt" opacity="1" stroke-linejoin="round"/>
<path stroke="#000000" stroke-width="1" d="M16.9669+16.5019C22.0104+16.3661+23.6016+23.625+27.6252+25.8931C30.3192+27.4116+33.2515+26.0427+35.9386+25.191L36.1348+25.6624C35.237+26.1866+33.0964+27.5442+31.92+27.8987C22.4907+30.7403+23.5231+18.3372+16.9457+17.4105" fill="#eb5f00" stroke-linecap="butt" opacity="1" stroke-linejoin="round"/>
</g>
</svg>
