<?xml version="1.0" encoding="UTF-8" standalone="no"?> <!-- Created with Vectornator for iOS (http://vectornator.io/) --><!DOCTYPE svg PUBLIC "-//W3C//DTD SVG 1.1//EN" "http://www.w3.org/Graphics/SVG/1.1/DTD/svg11.dtd">
<svg height="100%" style="fill-rule:evenodd;clip-rule:evenodd;stroke-linecap:round;stroke-linejoin:round;" xmlns:xlink="http://www.w3.org/1999/xlink" xmlns="http://www.w3.org/2000/svg" xml:space="preserve" width="100%" xmlns:vectornator="http://vectornator.io" version="1.1" viewBox="0 0 200 100">
<metadata>
<vectornator:setting key="DisplayWhiteBackground" value="0"/>
<vectornator:setting key="RulersVisible" value="1"/>
<vectornator:setting key="SnapToEdges" value="0"/>
<vectornator:setting key="Units" value="Points"/>
<vectornator:setting key="DynamicGuides" value="0"/>
<vectornator:setting key="SnapToPoints" value="0"/>
<vectornator:setting key="SnapToGrid" value="0"/>
<vectornator:setting key="SnapToGuides" value="1"/>
<vectornator:setting key="GridSpacing" value="36"/>
</metadata>
<defs/>
<g id="Layer 1" vectornator:layerName="Layer 1">
<path stroke="#000000" stroke-width="1" d="M58.7491+19.949C59.8906+13.563+67.9267+11.2378+73.2936+9.88521C89.7874+5.72844+105.069+7.82873+121.292+11.967L121.146+12.7844C105.581+11.0936+89.6192+8.56282+74.1828+12.4783C70.0469+13.5273+62.2219+15.2332+60.9716+20.1533" fill="#ff6c00" stroke-linecap="butt" opacity="1" stroke-linejoin="round"/>
<path stroke="#000000" stroke-width="1" d="M94.708+12.6038C94.886+29.2483+95.2912+51.0716+81.2477+62.7465C72.6486+69.8953+62.0608+72.7677+53.2964+64.3184L53.9687+63.124C60.9684+70.0222+71.8484+65.5257+78.4325+60.4782C92.7712+49.4858+91.5846+28.7685+93.0554+12.6222" fill="#ff6c00" stroke-linecap="butt" opacity="1" stroke-linejoin="round"/>
<path stroke="#000000" stroke-width="1" d="M79.9139+36.5334C91.0875+51.5324+109.23+25.8559+117.714+18.4372L118.249+18.8981C113.2+27.0083+87.2307+57.5439+79.0347+36.9063" fill="#ff6c00" stroke-linecap="butt" opacity="1" stroke-linejoin="round"/>
<path stroke="#000000" stroke-width="1" d="M90.6045+40.36C99.2262+37.2995+106.064+51.214+113.068+55.629C128.769+65.5265+142.711+61.0693+157.07+50.6069L157.794+51.7525C141.761+65.785+129.195+70.8604+110.861+58.398C107.029+55.7931+103.378+52.6091+100.617+48.837C97.7368+44.9007+97.1124+39.9288+91.1013+41.8371" fill="#ff6c00" stroke-linecap="butt" opacity="1" stroke-linejoin="round"/>
<text x="0" font-family="HelveticaNeue" y="0" text-anchor="start" vectornator:text="Jehangir&#x20;Kazi" fill="#000000" font-size="26" vectornator:width="182.122" opacity="1" transform="matrix(1 0 0 1 22.1241 67.5466)">
<tspan x="0" y="25" textLength="156.468">
Jehangir Kazi</tspan>
</text>
</g>
</svg>
